<?xml version="1.0" ?><svg viewBox="0 0 512 512" xmlns="http://www.w3.org/2000/svg"><g id="Add_to_cart"><path d="M462.7169,108.9661a96.4269,96.4269,0,0,0-3.2534-24.8877h-12.47A84.7674,84.7674,0,1,1,402.8087,32.7L409.3071,22.54A96.6251,96.6251,0,0,0,270.64,93.2505a62.57,62.57,0,0,0-98.4062,51.3584v18.7334h-59.228a30.3971,30.3971,0,0,0-30.3194,27.3721L55.6768,454.3462a30.478,30.478,0,0,0,30.32,33.5845h297.748a30.4778,30.4778,0,0,0,30.3193-33.5845L388.3189,203.05A96.8485,96.8485,0,0,0,462.7169,108.9661ZM184.2335,144.6089A50.5872,50.5872,0,0,1,269.3729,107.61c-.0062.4519-.0172.9026-.0172,1.356a96.1172,96.1172,0,0,0,16.1522,53.438v.9382H184.2335Zm107.2744,68.4516a9.5005,9.5005,0,1,1-9.501,9.5005A9.5111,9.5111,0,0,1,291.5079,213.0605Zm-113.2744,0a9.5005,9.5005,0,1,1-9.501,9.5005A9.5111,9.5111,0,0,1,178.2335,213.0605Zm223.893,242.5083a18.4777,18.4777,0,0,1-18.3818,20.3619h-6.729l-37.3491-34.9834a45.8558,45.8558,0,0,0-31.4551-12.4312H157.4527a45.8537,45.8537,0,0,0-31.4546,12.4312L88.6489,475.9307H85.9967a18.4785,18.4785,0,0,1-18.3824-20.3619L94.6236,191.937a18.4289,18.4289,0,0,1,18.3819-16.5947h59.228v26.5869a21.5005,21.5005,0,1,0,12,0V175.3423H285.5079v26.5869a21.5005,21.5005,0,1,0,12,0V177.0959a96.5388,96.5388,0,0,0,78.9565,27.9869Z"/><path d="M384.762,152.4026a11.8531,11.8531,0,1,0,23.7061.0378,11.8459,11.8459,0,0,0-6.9663-10.79l.021-3.11a6.53,6.53,0,0,0-6.4858-6.5739l-41.4553-.28-3.2733-10.7094,43.0874-2.8443a11.7411,11.7411,0,0,0,10.6465-9.696l2.2139-14.5362a11.4738,11.4738,0,0,0-.4812-5.95,11.7944,11.7944,0,0,0-11.0895-7.8124l-56.4476-1.2594-4.424-11.8706a5.4956,5.4956,0,0,0-5.2556-3.8894h-19.629V74.1118h15.5614L344.25,138.7612a5.4773,5.4773,0,0,0,1.3,2.2058,11.8442,11.8442,0,1,0,9.6614,1.7232l34.36.2324A11.8232,11.8232,0,0,0,384.762,152.4026Z"/><polygon points="429.676 69.349 441.676 69.349 441.676 53.896 457.129 53.896 457.129 41.896 441.676 41.896 441.676 26.442 429.676 26.442 429.676 41.896 414.222 41.896 414.222 53.896 429.676 53.896 429.676 69.349"/></g></svg>